<svg width="37" height="36" viewBox="0 0 37 36" fill="none" xmlns="http://www.w3.org/2000/svg">
<path fill-rule="evenodd" clip-rule="evenodd" d="M7.47233 15.0249C8.84463 14.5863 10.2812 14.4313 11.6972 14.5576L14.7444 12.9469C15.2393 13.8833 16.035 14.6259 17.0033 15.0552C17.9716 15.4844 19.0562 15.5752 20.0824 15.3131C21.1087 15.051 22.0168 14.4512 22.6607 13.6102C23.3046 12.7692 23.6467 11.7359 23.632 10.6769C23.6172 9.61779 23.2465 8.59449 22.5795 7.77172C21.9125 6.94895 20.988 6.37458 19.9549 6.1411C18.9218 5.90763 17.8401 6.02862 16.8841 6.4846C15.9281 6.94059 15.1534 7.70503 14.6847 8.65484L9.28171 5.98854C10.3491 3.82562 12.1133 2.08484 14.2903 1.04647C16.4673 0.00810368 18.9304 -0.267422 21.283 0.264254C23.6356 0.79593 25.7409 2.10387 27.2598 3.97748C28.7787 5.8511 29.6229 8.18136 29.6564 10.5931C29.6755 11.9617 29.4328 13.3113 28.9514 14.5727C31.052 15.2072 32.9132 16.4718 34.2784 18.2023L29.5483 21.9342C28.8922 21.1027 27.9754 20.5161 26.9455 20.269C25.9156 20.0218 24.8324 20.1285 23.8705 20.5717C22.9085 21.015 22.1237 21.7691 21.6424 22.7126C21.1612 23.6561 21.0114 24.7342 21.2173 25.7731C21.4232 26.8121 21.9728 27.7516 22.7775 28.4402C23.5822 29.1289 24.5953 29.5267 25.6536 29.5696C26.7119 29.6126 27.7538 29.2981 28.6117 28.6768C29.4695 28.0556 30.0933 27.1637 30.3827 26.1448L36.1786 27.7907C35.5197 30.1109 34.0991 32.1419 32.1457 33.5566C30.1922 34.9713 27.8194 35.6875 25.4095 35.5898C22.9995 35.492 20.6925 34.5861 18.86 33.0179C18.7362 32.9119 18.615 32.8033 18.4965 32.6922C17.7515 33.4693 16.8888 34.1353 15.9332 34.6627C13.8215 35.8281 11.3791 36.249 8.99908 35.8576C6.61911 35.4661 4.4401 34.2852 2.81291 32.5048C1.18572 30.7244 0.205035 28.4482 0.0287435 26.0427C-0.147548 23.6372 0.490818 21.2424 1.84106 19.2438C3.1913 17.2452 5.17484 15.7591 7.47233 15.0249ZM15.3625 27.2064C15.343 27.1194 15.3246 27.032 15.3072 26.9444C15.0104 25.4469 15.0381 23.9137 15.3763 22.4452L14.7752 22.81C14.2257 21.9045 13.3874 21.2103 12.3954 20.8392C11.4034 20.4681 10.3153 20.4416 9.30643 20.764C8.29752 21.0864 7.42648 21.739 6.83354 22.6167C6.2406 23.4943 5.96027 24.546 6.03768 25.6023C6.1151 26.6587 6.54576 27.6582 7.26031 28.4401C7.97487 29.2219 8.93175 29.7405 9.97688 29.9124C11.022 30.0843 12.0946 29.8995 13.0219 29.3877C13.9492 28.8759 14.6773 28.0669 15.089 27.091L15.3625 27.2064Z" fill="#39585D"/>
</svg>
