<svg width="232" height="46" viewBox="0 0 232 46" fill="none" xmlns="http://www.w3.org/2000/svg">
<path fill-rule="evenodd" clip-rule="evenodd" d="M7.47233 20.0249C8.84463 19.5863 10.2812 19.4313 11.6972 19.5576L14.7444 17.9469C15.2393 18.8833 16.035 19.6259 17.0033 20.0552C17.9716 20.4844 19.0562 20.5752 20.0824 20.3131C21.1087 20.051 22.0168 19.4512 22.6607 18.6102C23.3046 17.7692 23.6467 16.7359 23.632 15.6769C23.6172 14.6178 23.2465 13.5945 22.5795 12.7717C21.9125 11.9489 20.988 11.3746 19.9549 11.1411C18.9218 10.9076 17.8401 11.0286 16.8841 11.4846C15.9281 11.9406 15.1534 12.705 14.6847 13.6548L9.28171 10.9885C10.3491 8.82562 12.1133 7.08484 14.2903 6.04647C16.4673 5.0081 18.9304 4.73258 21.283 5.26425C23.6356 5.79593 25.7409 7.10387 27.2598 8.97748C28.7787 10.8511 29.6229 13.1814 29.6564 15.5931C29.6755 16.9617 29.4328 18.3113 28.9514 19.5727C31.052 20.2072 32.9132 21.4718 34.2784 23.2023L29.5483 26.9342C28.8922 26.1027 27.9754 25.5161 26.9455 25.269C25.9156 25.0218 24.8324 25.1285 23.8705 25.5717C22.9085 26.015 22.1237 26.7691 21.6424 27.7126C21.1612 28.6561 21.0114 29.7342 21.2173 30.7731C21.4232 31.8121 21.9728 32.7516 22.7775 33.4402C23.5822 34.1289 24.5953 34.5267 25.6536 34.5696C26.7119 34.6126 27.7538 34.2981 28.6117 33.6768C29.4695 33.0556 30.0933 32.1637 30.3827 31.1448L36.1786 32.7907C35.5197 35.1109 34.0991 37.1419 32.1457 38.5566C30.1922 39.9713 27.8194 40.6875 25.4095 40.5898C22.9995 40.492 20.6925 39.5861 18.86 38.0179C18.7362 37.9119 18.615 37.8033 18.4965 37.6922C17.7515 38.4693 16.8888 39.1353 15.9332 39.6627C13.8215 40.8281 11.3791 41.249 8.99908 40.8576C6.61911 40.4661 4.4401 39.2852 2.81291 37.5048C1.18572 35.7244 0.205035 33.4482 0.0287435 31.0427C-0.147548 28.6372 0.490818 26.2424 1.84106 24.2438C3.1913 22.2452 5.17484 20.7591 7.47233 20.0249ZM15.3625 32.2064C15.343 32.1194 15.3246 32.032 15.3072 31.9444C15.0104 30.4469 15.0381 28.9137 15.3763 27.4452L14.7752 27.81C14.2257 26.9045 13.3874 26.2103 12.3954 25.8392C11.4034 25.4681 10.3153 25.4416 9.30643 25.764C8.29752 26.0864 7.42648 26.739 6.83354 27.6167C6.2406 28.4943 5.96027 29.546 6.03768 30.6023C6.1151 31.6587 6.54576 32.6582 7.26031 33.4401C7.97487 34.2219 8.93175 34.7405 9.97688 34.9124C11.022 35.0843 12.0946 34.8995 13.0219 34.3877C13.9492 33.8759 14.6773 33.0669 15.089 32.091L15.3625 32.2064Z" fill="white"/>
<path d="M51.5385 30.1C49.0985 30.1 47.1918 29.4933 45.8185 28.28C44.4585 27.0533 43.7785 25.24 43.7785 22.84C43.7785 20.4533 44.4718 18.6533 45.8585 17.44C47.2585 16.2133 49.2851 15.6 51.9385 15.6H59.5385V18.2H52.1585C50.4118 18.2 49.1185 18.5667 48.2785 19.3C47.4518 20.0333 47.0385 21.2133 47.0385 22.84C47.0385 24.3867 47.4051 25.5333 48.1385 26.28C48.8718 27.0133 49.9451 27.4133 51.3585 27.48V21.92H60.3185V30.1H51.5385ZM54.3585 27.5H57.1185V24.52H54.3585V27.5ZM62.8136 30V15.7H65.7136V30H62.8136ZM70.6513 30C69.5713 30 68.7446 29.7267 68.1713 29.18C67.5979 28.6333 67.3113 27.8533 67.3113 26.84C67.3113 25.84 67.5979 25.0667 68.1713 24.52C68.7446 23.9733 69.5713 23.7 70.6513 23.7H78.3313V23.22C78.3313 22.4067 77.9313 22 77.1313 22H68.6513V19.7H77.8913C79.1046 19.7 79.9646 19.98 80.4713 20.54C80.9779 21.0867 81.2313 21.86 81.2313 22.86V30H70.6513ZM71.1713 27.7H78.3313V26H71.1713C70.9179 26 70.7179 26.08 70.5713 26.24C70.4379 26.3867 70.3713 26.5867 70.3713 26.84C70.3713 27.0933 70.4379 27.3 70.5713 27.46C70.7179 27.62 70.9179 27.7 71.1713 27.7ZM83.4386 30V19.7H96.7786C97.952 19.7 98.812 19.9933 99.3586 20.58C99.9053 21.1533 100.179 21.9133 100.179 22.86V30H97.2786V23.22C97.2786 22.4067 96.8653 22 96.0386 22H93.2586V30H90.3586V22H86.3386V30H83.4386ZM107.566 30.1C105.78 30.1 104.386 29.66 103.386 28.78C102.386 27.8867 101.886 26.58 101.886 24.86C101.886 23.1267 102.386 21.82 103.386 20.94C104.386 20.0467 105.78 19.6 107.566 19.6H111.266C113.053 19.6 114.446 20.0467 115.446 20.94C116.446 21.82 116.946 23.1267 116.946 24.86C116.946 26.58 116.446 27.8867 115.446 28.78C114.446 29.66 113.053 30.1 111.266 30.1H107.566ZM107.566 27.8H111.266C112.133 27.8 112.793 27.56 113.246 27.08C113.713 26.6 113.946 25.86 113.946 24.86C113.946 23.8467 113.713 23.1 113.246 22.62C112.793 22.14 112.133 21.9 111.266 21.9H107.566C106.7 21.9 106.033 22.14 105.566 22.62C105.113 23.1 104.886 23.8467 104.886 24.86C104.886 25.86 105.113 26.6 105.566 27.08C106.033 27.56 106.7 27.8 107.566 27.8ZM122.031 30C120.858 30 119.998 29.7067 119.451 29.12C118.918 28.5333 118.651 27.7733 118.651 26.84V19.7H121.551V26.5C121.551 27.3 121.951 27.7 122.751 27.7H126.911C127.711 27.7 128.111 27.3 128.111 26.5V19.7H131.011V26.84C131.011 27.7733 130.738 28.5333 130.191 29.12C129.658 29.7067 128.804 30 127.631 30H122.031ZM133.107 30V19.7H140.987C142.147 19.7 143 19.9933 143.547 20.58C144.093 21.1533 144.367 21.9133 144.367 22.86V25H141.427V23.22C141.427 22.42 141.027 22.02 140.227 22.02H136.047V30H133.107ZM146.258 30V15.7H149.458V21.56H159.538V15.7H162.738V30H159.538V24.16H149.458V30H146.258ZM167.975 30C166.895 30 166.069 29.7267 165.495 29.18C164.922 28.6333 164.635 27.8533 164.635 26.84C164.635 25.84 164.922 25.0667 165.495 24.52C166.069 23.9733 166.895 23.7 167.975 23.7H175.655V23.22C175.655 22.4067 175.255 22 174.455 22H165.975V19.7H175.215C176.429 19.7 177.289 19.98 177.795 20.54C178.302 21.0867 178.555 21.86 178.555 22.86V30H167.975ZM168.495 27.7H175.655V26H168.495C168.242 26 168.042 26.08 167.895 26.24C167.762 26.3867 167.695 26.5867 167.695 26.84C167.695 27.0933 167.762 27.3 167.895 27.46C168.042 27.62 168.242 27.7 168.495 27.7ZM184.008 30L179.668 19.7H182.708L186.068 27.68H187.068L190.428 19.7H193.468L189.128 30H184.008ZM199.851 30.1C198.065 30.1 196.671 29.66 195.671 28.78C194.671 27.8867 194.171 26.58 194.171 24.86C194.171 23.1267 194.671 21.82 195.671 20.94C196.671 20.0467 198.065 19.6 199.851 19.6H204.851C206.025 19.6 206.918 19.88 207.531 20.44C208.158 20.9867 208.471 21.7733 208.471 22.8C208.471 24.8933 207.265 25.94 204.851 25.94H197.291C197.571 27.18 198.425 27.8 199.851 27.8H207.951V30.1H199.851ZM199.851 21.9C198.478 21.9 197.631 22.48 197.311 23.64H204.711C204.978 23.64 205.185 23.56 205.331 23.4C205.491 23.24 205.571 23.02 205.571 22.74C205.571 22.18 205.285 21.9 204.711 21.9H199.851ZM210.275 30V19.7H219.255C220.428 19.7 221.281 19.9933 221.815 20.58C222.361 21.1533 222.635 21.9133 222.635 22.86V30H219.735V23.2C219.735 22.4 219.335 22 218.535 22H213.175V30H210.275Z" fill="white"/>
</svg>
