<svg width="232" height="53" viewBox="0 0 232 53" fill="none" xmlns="http://www.w3.org/2000/svg">
<path fill-rule="evenodd" clip-rule="evenodd" d="M7.47234 23.5249C8.84464 23.0864 10.2813 22.9313 11.6972 23.0576L14.7444 21.4469C15.2393 22.3833 16.035 23.1259 17.0033 23.5552C17.9716 23.9844 19.0562 24.0752 20.0825 23.8131C21.1087 23.551 22.0168 22.9512 22.6607 22.1102C23.3046 21.2692 23.6467 20.2359 23.632 19.1769C23.6172 18.1178 23.2465 17.0945 22.5795 16.2717C21.9125 15.449 20.988 14.8746 19.9549 14.6411C18.9218 14.4076 17.8401 14.5286 16.8841 14.9846C15.9281 15.4406 15.1534 16.205 14.6847 17.1548L9.28172 14.4885C10.3491 12.3256 12.1133 10.5848 14.2903 9.54648C16.4673 8.50811 18.9304 8.23258 21.283 8.76426C23.6356 9.29594 25.7409 10.6039 27.2598 12.4775C28.7787 14.3511 29.6229 16.6814 29.6564 19.0931C29.6755 20.4617 29.4328 21.8113 28.9514 23.0727C31.052 23.7073 32.9132 24.9718 34.2784 26.7023L29.5483 30.4342C28.8922 29.6027 27.9754 29.0161 26.9455 28.769C25.9156 28.5218 24.8324 28.6285 23.8705 29.0717C22.9085 29.515 22.1237 30.2691 21.6424 31.2126C21.1612 32.1561 21.0114 33.2342 21.2173 34.2732C21.4232 35.3121 21.9728 36.2516 22.7775 36.9402C23.5822 37.6289 24.5953 38.0267 25.6536 38.0697C26.7119 38.1126 27.7539 37.7981 28.6117 37.1768C29.4695 36.5556 30.0934 35.6637 30.3827 34.6448L36.1786 36.2907C35.5197 38.6109 34.0991 40.6419 32.1457 42.0566C30.1922 43.4713 27.8194 44.1875 25.4095 44.0898C22.9995 43.992 20.6925 43.0861 18.86 41.5179C18.7362 41.4119 18.615 41.3033 18.4965 41.1922C17.7515 41.9693 16.8888 42.6353 15.9332 43.1627C13.8215 44.3281 11.3791 44.749 8.99909 44.3576C6.61912 43.9661 4.44011 42.7852 2.81292 41.0048C1.18573 39.2244 0.205044 36.9482 0.0287532 34.5427C-0.147538 32.1372 0.490828 29.7424 1.84107 27.7438C3.19131 25.7452 5.17485 24.2591 7.47234 23.5249ZM15.3625 35.7064C15.343 35.6194 15.3246 35.532 15.3072 35.4444C15.0104 33.9469 15.0381 32.4137 15.3763 30.9452L14.7753 31.31C14.2257 30.4045 13.3875 29.7103 12.3954 29.3392C11.4034 28.9681 10.3153 28.9416 9.30644 29.264C8.29753 29.5864 7.42649 30.239 6.83355 31.1167C6.24061 31.9943 5.96028 33.046 6.03769 34.1023C6.11511 35.1587 6.54577 36.1582 7.26032 36.9401C7.97488 37.7219 8.93176 38.2405 9.97689 38.4124C11.022 38.5843 12.0946 38.3995 13.0219 37.8877C13.9492 37.3759 14.6773 36.5669 15.089 35.591L15.3625 35.7064Z" fill="#39585D"/>
<path d="M51.5385 33.6C49.0985 33.6 47.1918 32.9933 45.8185 31.78C44.4585 30.5533 43.7785 28.74 43.7785 26.34C43.7785 23.9533 44.4718 22.1533 45.8585 20.94C47.2585 19.7133 49.2851 19.1 51.9385 19.1H59.5385V21.7H52.1585C50.4118 21.7 49.1185 22.0667 48.2785 22.8C47.4518 23.5333 47.0385 24.7133 47.0385 26.34C47.0385 27.8867 47.4051 29.0333 48.1385 29.78C48.8718 30.5133 49.9451 30.9133 51.3585 30.98V25.42H60.3185V33.6H51.5385ZM54.3585 31H57.1185V28.02H54.3585V31ZM62.8136 33.5V19.2H65.7136V33.5H62.8136ZM70.6513 33.5C69.5713 33.5 68.7446 33.2267 68.1713 32.68C67.5979 32.1333 67.3113 31.3533 67.3113 30.34C67.3113 29.34 67.5979 28.5667 68.1713 28.02C68.7446 27.4733 69.5713 27.2 70.6513 27.2H78.3313V26.72C78.3313 25.9067 77.9313 25.5 77.1313 25.5H68.6513V23.2H77.8913C79.1046 23.2 79.9646 23.48 80.4713 24.04C80.9779 24.5867 81.2313 25.36 81.2313 26.36V33.5H70.6513ZM71.1713 31.2H78.3313V29.5H71.1713C70.9179 29.5 70.7179 29.58 70.5713 29.74C70.4379 29.8867 70.3713 30.0867 70.3713 30.34C70.3713 30.5933 70.4379 30.8 70.5713 30.96C70.7179 31.12 70.9179 31.2 71.1713 31.2ZM83.4386 33.5V23.2H96.7786C97.952 23.2 98.812 23.4933 99.3586 24.08C99.9053 24.6533 100.179 25.4133 100.179 26.36V33.5H97.2786V26.72C97.2786 25.9067 96.8653 25.5 96.0386 25.5H93.2586V33.5H90.3586V25.5H86.3386V33.5H83.4386ZM107.566 33.6C105.78 33.6 104.386 33.16 103.386 32.28C102.386 31.3867 101.886 30.08 101.886 28.36C101.886 26.6267 102.386 25.32 103.386 24.44C104.386 23.5467 105.78 23.1 107.566 23.1H111.266C113.053 23.1 114.446 23.5467 115.446 24.44C116.446 25.32 116.946 26.6267 116.946 28.36C116.946 30.08 116.446 31.3867 115.446 32.28C114.446 33.16 113.053 33.6 111.266 33.6H107.566ZM107.566 31.3H111.266C112.133 31.3 112.793 31.06 113.246 30.58C113.713 30.1 113.946 29.36 113.946 28.36C113.946 27.3467 113.713 26.6 113.246 26.12C112.793 25.64 112.133 25.4 111.266 25.4H107.566C106.7 25.4 106.033 25.64 105.566 26.12C105.113 26.6 104.886 27.3467 104.886 28.36C104.886 29.36 105.113 30.1 105.566 30.58C106.033 31.06 106.7 31.3 107.566 31.3ZM122.031 33.5C120.858 33.5 119.998 33.2067 119.451 32.62C118.918 32.0333 118.651 31.2733 118.651 30.34V23.2H121.551V30C121.551 30.8 121.951 31.2 122.751 31.2H126.911C127.711 31.2 128.111 30.8 128.111 30V23.2H131.011V30.34C131.011 31.2733 130.738 32.0333 130.191 32.62C129.658 33.2067 128.804 33.5 127.631 33.5H122.031ZM133.107 33.5V23.2H140.987C142.147 23.2 143 23.4933 143.547 24.08C144.093 24.6533 144.367 25.4133 144.367 26.36V28.5H141.427V26.72C141.427 25.92 141.027 25.52 140.227 25.52H136.047V33.5H133.107ZM146.258 33.5V19.2H149.458V25.06H159.538V19.2H162.738V33.5H159.538V27.66H149.458V33.5H146.258ZM167.975 33.5C166.895 33.5 166.069 33.2267 165.495 32.68C164.922 32.1333 164.635 31.3533 164.635 30.34C164.635 29.34 164.922 28.5667 165.495 28.02C166.069 27.4733 166.895 27.2 167.975 27.2H175.655V26.72C175.655 25.9067 175.255 25.5 174.455 25.5H165.975V23.2H175.215C176.429 23.2 177.289 23.48 177.795 24.04C178.302 24.5867 178.555 25.36 178.555 26.36V33.5H167.975ZM168.495 31.2H175.655V29.5H168.495C168.242 29.5 168.042 29.58 167.895 29.74C167.762 29.8867 167.695 30.0867 167.695 30.34C167.695 30.5933 167.762 30.8 167.895 30.96C168.042 31.12 168.242 31.2 168.495 31.2ZM184.008 33.5L179.668 23.2H182.708L186.068 31.18H187.068L190.428 23.2H193.468L189.128 33.5H184.008ZM199.851 33.6C198.065 33.6 196.671 33.16 195.671 32.28C194.671 31.3867 194.171 30.08 194.171 28.36C194.171 26.6267 194.671 25.32 195.671 24.44C196.671 23.5467 198.065 23.1 199.851 23.1H204.851C206.025 23.1 206.918 23.38 207.531 23.94C208.158 24.4867 208.471 25.2733 208.471 26.3C208.471 28.3933 207.265 29.44 204.851 29.44H197.291C197.571 30.68 198.425 31.3 199.851 31.3H207.951V33.6H199.851ZM199.851 25.4C198.478 25.4 197.631 25.98 197.311 27.14H204.711C204.978 27.14 205.185 27.06 205.331 26.9C205.491 26.74 205.571 26.52 205.571 26.24C205.571 25.68 205.285 25.4 204.711 25.4H199.851ZM210.275 33.5V23.2H219.255C220.428 23.2 221.281 23.4933 221.815 24.08C222.361 24.6533 222.635 25.4133 222.635 26.36V33.5H219.735V26.7C219.735 25.9 219.335 25.5 218.535 25.5H213.175V33.5H210.275Z" fill="#555555"/>
</svg>
